<svg width="137" height="20" viewBox="0 0 137 20" fill="none" xmlns="http://www.w3.org/2000/svg">
<g clip-path="url(#clip0_1_2489)">
<path d="M0 0.368386H7.48664C8.89586 0.359728 10.2952 0.604616 11.6176 1.09118C12.8259 1.53692 13.9321 2.22162 14.8696 3.1047C15.7634 3.97566 16.4817 5.00963 16.9863 6.15095C17.4929 7.3415 17.7393 8.6263 17.7094 9.91975V9.9712C17.7141 11.2624 17.4684 12.5425 16.9863 13.7405C16.5002 14.892 15.7792 15.9296 14.8696 16.7868C13.9403 17.6805 12.8319 18.3669 11.6176 18.8005C10.3019 19.3116 8.89784 19.5574 7.48664 19.5233H0V0.368386ZM7.48664 15.7543C8.29576 15.7557 9.0987 15.616 9.85983 15.3412C10.551 15.1012 11.1718 14.6933 11.6668 14.1546C12.1667 13.6277 12.5687 13.0157 12.8534 12.3476C13.1332 11.6053 13.2732 10.8174 13.2665 10.0241V9.97219C13.2638 9.17989 13.124 8.39403 12.8534 7.64922C12.6013 6.94894 12.1959 6.31372 11.6668 5.7903C11.1624 5.26243 10.5445 4.85676 9.85983 4.60371C9.09895 4.32889 8.29576 4.18938 7.48664 4.19111H4.23458V15.7562L7.48664 15.7543Z" fill="black"/>
<path d="M21.6328 0.368164H25.8667V19.5231H21.6328V0.368164Z" fill="black"/>
<path d="M39.8576 19.8854C38.4654 19.894 37.0831 19.6491 35.7791 19.1626C34.6024 18.6901 33.5315 17.9881 32.6294 17.0971C31.7124 16.1772 30.9924 15.0804 30.5132 13.8733C30.0338 12.6661 29.8053 11.3739 29.8416 10.0758V10.0243C29.8288 8.71058 30.093 7.40871 30.6164 6.20357C31.1133 5.02762 31.8322 3.95827 32.7333 3.05392C33.6282 2.14165 34.6998 1.42158 35.8825 0.937003C37.1601 0.413339 38.5292 0.150147 39.9097 0.162762C40.687 0.155589 41.4637 0.207535 42.233 0.317858C42.9016 0.428181 43.5583 0.600839 44.1948 0.833853C44.7912 1.04634 45.3623 1.32313 45.8986 1.65955C46.4389 2.00437 46.9563 2.38382 47.4476 2.79543L44.8144 5.99653C44.4533 5.68881 44.0916 5.42884 43.7305 5.17084C43.3691 4.93387 42.9892 4.72658 42.5944 4.5512C42.1813 4.37656 41.7474 4.25511 41.3036 4.18956C40.8116 4.08418 40.3095 4.03223 39.8064 4.03446C39.0583 4.02877 38.3182 4.18758 37.638 4.4995C36.981 4.82231 36.3866 5.25939 35.8825 5.79023C35.3699 6.34605 34.9672 6.99414 34.6959 7.70011C34.4252 8.44491 34.2855 9.23103 34.2828 10.0236V10.075C34.281 10.9015 34.4208 11.7222 34.6959 12.5016C34.9586 13.2148 35.3642 13.8666 35.8881 14.417C36.4121 14.9676 37.0431 15.4049 37.7421 15.7025C38.4765 16.0147 39.2676 16.173 40.0656 16.1673C41.4775 16.218 42.8689 15.8202 44.0409 15.0312V12.2946H39.8071V8.68015H48.1194V16.9937C47.0506 17.8689 45.8699 18.5981 44.6086 19.1618C43.0671 19.6271 41.4674 19.8708 39.8576 19.8854Z" fill="black"/>
<path d="M52.249 0.368164H56.4829V19.5231H52.249V0.368164Z" fill="black"/>
<path d="M61.2841 0.368164H75.6907V4.13746H65.4148V8.00916H74.4499V11.7784H65.4148V15.8055H75.7921V19.5743H61.2324V0.368164H61.2841Z" fill="black"/>
<path d="M88.8029 19.8856C87.4107 19.8945 86.0285 19.6494 84.7244 19.1628C83.5477 18.6904 82.4768 17.9884 81.5747 17.0974C80.6577 16.1774 79.9379 15.0804 79.4585 13.8733C78.9794 12.6661 78.7506 11.3739 78.7869 10.0758V10.0243C78.7741 8.71058 79.038 7.40872 79.5612 6.20357C80.0581 5.02762 80.777 3.95827 81.6779 3.05392C82.5733 2.14165 83.6446 1.42158 84.8275 0.937003C86.1051 0.413339 87.474 0.150147 88.8546 0.162762C89.6318 0.155589 90.4085 0.207535 91.178 0.317858C91.8467 0.428181 92.5034 0.600839 93.1399 0.833854C93.7363 1.04634 94.3074 1.32313 94.8437 1.65955C95.3839 2.00437 95.9014 2.38382 96.3927 2.79543L93.7595 5.99653C93.3984 5.68881 93.0367 5.42884 92.6753 5.17084C92.3139 4.93387 91.9342 4.72683 91.5394 4.5512C91.1263 4.37656 90.6925 4.25511 90.2487 4.18956C89.7567 4.08418 89.2548 4.03224 88.7514 4.03446C88.0031 4.02877 87.2628 4.18758 86.5825 4.4995C85.9258 4.82231 85.3314 5.2594 84.8273 5.79023C84.3147 6.34605 83.912 6.99414 83.6407 7.70011C83.3701 8.44491 83.2303 9.23103 83.2276 10.0236V10.075C83.2259 10.9015 83.3656 11.7222 83.6407 12.5016C83.9034 13.2148 84.309 13.8666 84.833 14.417C85.3569 14.9673 85.9879 15.4049 86.6869 15.7025C87.4214 16.0149 88.2124 16.173 89.0104 16.1675C90.4223 16.2182 91.8138 15.8205 92.9858 15.0314V12.2948H88.7522V8.6804H97.0635V16.994C95.9947 17.8691 94.814 18.5984 93.5527 19.1621C92.0119 19.6274 90.4125 19.8708 88.8029 19.8856Z" fill="black"/>
<path d="M110.282 19.8856C108.889 19.8945 107.507 19.6494 106.203 19.1628C105.016 18.7097 103.942 18.0049 103.054 17.0974C102.137 16.1774 101.416 15.0806 100.937 13.8735C100.458 12.6664 100.229 11.3742 100.265 10.0758V10.0243C100.253 8.71058 100.517 7.40872 101.04 6.20357C101.537 5.02762 102.256 3.95827 103.157 3.05392C104.052 2.1419 105.123 1.42158 106.306 0.937003C107.584 0.413339 108.953 0.150147 110.333 0.162762C111.11 0.155589 111.887 0.207535 112.657 0.317858C113.325 0.428181 113.982 0.600839 114.619 0.833854C115.215 1.04634 115.786 1.32313 116.323 1.65955C116.863 2.00412 117.381 2.38357 117.872 2.79543L115.239 5.99653C114.877 5.68881 114.516 5.42884 114.154 5.17084C113.793 4.93387 113.413 4.72683 113.019 4.5512C112.606 4.37656 112.172 4.25511 111.728 4.18956C111.236 4.08418 110.734 4.03224 110.231 4.03446C109.483 4.02877 108.742 4.18758 108.062 4.4995C107.405 4.82231 106.811 5.2594 106.307 5.79023C105.794 6.34605 105.392 6.99414 105.12 7.70011C104.825 8.43824 104.684 9.2288 104.707 10.0236V10.075C104.705 10.9015 104.845 11.7222 105.12 12.5016C105.372 13.2173 105.777 13.8693 106.307 14.412C106.839 14.9565 107.47 15.3943 108.166 15.7025C108.9 16.0149 109.691 16.1732 110.489 16.1675C111.901 16.2182 113.293 15.8205 114.465 15.0314V12.2948H110.231V8.6804H118.542V16.994C117.473 17.8691 116.293 18.5984 115.031 19.1621C113.491 19.6274 111.891 19.8708 110.282 19.8856Z" fill="black"/>
<path d="M129.332 19.8334C127.869 19.8319 126.418 19.5697 125.047 19.0592C123.636 18.5377 122.339 17.7487 121.227 16.7357L123.705 13.7412C124.518 14.4288 125.421 15.002 126.39 15.445C127.349 15.8677 128.388 16.0792 129.436 16.0651C130.138 16.1084 130.838 15.9469 131.449 15.6001C131.675 15.4571 131.86 15.2587 131.986 15.0235C132.113 14.7885 132.177 14.5251 132.172 14.2579V14.206C132.176 13.9564 132.123 13.7093 132.017 13.4829C131.883 13.2454 131.687 13.049 131.449 12.9152C131.08 12.6755 130.681 12.4846 130.262 12.3475C129.622 12.1165 128.966 11.9268 128.301 11.7798C127.32 11.5211 126.442 11.2628 125.668 11.0051C124.954 10.7285 124.278 10.3642 123.654 9.92091C123.102 9.49916 122.659 8.95002 122.363 8.32048C122.031 7.57469 121.872 6.76334 121.899 5.94754V5.8956C121.888 5.08104 122.047 4.27291 122.363 3.52241C122.674 2.8157 123.153 2.19532 123.758 1.71544C124.376 1.18138 125.096 0.777691 125.874 0.528845C126.743 0.254027 127.648 0.114762 128.559 0.115752C129.876 0.103384 131.185 0.312899 132.431 0.735392C133.608 1.15195 134.708 1.76293 135.683 2.54286L133.515 5.69252C132.711 5.15995 131.865 4.69367 130.985 4.29814C130.204 3.95455 129.36 3.77868 128.507 3.7819C127.854 3.73514 127.203 3.89791 126.648 4.24644C126.457 4.37977 126.301 4.55713 126.193 4.76367C126.085 4.97022 126.029 5.19977 126.029 5.43303V5.48498C126.026 5.76796 126.078 6.04872 126.184 6.31117C126.335 6.56669 126.548 6.77992 126.803 6.93081C127.204 7.16951 127.639 7.34365 128.094 7.44705C128.61 7.60215 129.333 7.8082 130.16 8.01474C131.04 8.24479 131.903 8.53841 132.741 8.89362C133.431 9.17512 134.075 9.55803 134.652 10.0298C135.149 10.4592 135.553 10.9863 135.838 11.5785C136.123 12.2652 136.264 13.0033 136.251 13.7469V13.7988C136.284 14.6319 136.124 15.4613 135.784 16.2224C135.443 16.9836 134.932 17.6559 134.289 18.1872C133.637 18.7163 132.881 19.1032 132.069 19.3226C131.205 19.6937 130.271 19.8683 129.332 19.8334Z" fill="black"/>
</g>
<defs>
<clipPath id="clip0_1_2489">
<rect width="136.254" height="19.7701" fill="white" transform="translate(0 0.115234)"/>
</clipPath>
</defs>
</svg>
