<svg width="64" height="12" viewBox="0 0 64 12" fill="none" xmlns="http://www.w3.org/2000/svg">
<path d="M0.884943 11.5V1.31818H7.62642V3.09304H3.03764V5.51918H7.17898V7.29403H3.03764V11.5H0.884943ZM11.1165 11.6442C10.6293 11.6442 10.1951 11.5597 9.81392 11.3906C9.43277 11.2183 9.13116 10.9647 8.90909 10.63C8.69034 10.2919 8.58097 9.87098 8.58097 9.36719C8.58097 8.94295 8.65885 8.58665 8.81463 8.2983C8.97041 8.00994 9.18253 7.77794 9.45099 7.60227C9.71946 7.42661 10.0244 7.29403 10.3658 7.20455C10.7105 7.11506 11.0717 7.05208 11.4496 7.01562C11.8937 6.96922 12.2517 6.92614 12.5234 6.88636C12.7952 6.84328 12.9924 6.7803 13.1151 6.69744C13.2377 6.61458 13.299 6.49195 13.299 6.32955V6.29972C13.299 5.98485 13.1996 5.74124 13.0007 5.56889C12.8052 5.39654 12.5268 5.31037 12.1655 5.31037C11.7843 5.31037 11.4811 5.39489 11.2557 5.56392C11.0303 5.72964 10.8812 5.93845 10.8082 6.19034L8.84943 6.03125C8.94886 5.56723 9.14441 5.16619 9.43608 4.82812C9.72775 4.48674 10.1039 4.2249 10.5646 4.04261C11.0286 3.85701 11.5656 3.7642 12.1754 3.7642C12.5997 3.7642 13.0057 3.81392 13.3935 3.91335C13.7846 4.01278 14.1309 4.1669 14.4325 4.37571C14.7375 4.58452 14.9777 4.85298 15.1534 5.18111C15.3291 5.50592 15.4169 5.89536 15.4169 6.34943V11.5H13.4084V10.4411H13.3487C13.2261 10.6797 13.062 10.8902 12.8565 11.0724C12.651 11.2514 12.4041 11.3923 12.1158 11.495C11.8274 11.5945 11.4943 11.6442 11.1165 11.6442ZM11.723 10.1825C12.0346 10.1825 12.3097 10.1212 12.5483 9.99858C12.7869 9.87263 12.9742 9.7036 13.1101 9.49148C13.246 9.27936 13.3139 9.03906 13.3139 8.7706V7.96023C13.2476 8.00331 13.1565 8.04309 13.0405 8.07955C12.9278 8.11269 12.8002 8.14418 12.6577 8.17401C12.5152 8.20052 12.3726 8.22538 12.2301 8.24858C12.0876 8.26847 11.9583 8.28669 11.8423 8.30327C11.5938 8.33973 11.3767 8.39773 11.1911 8.47727C11.0054 8.55682 10.8613 8.66454 10.7585 8.80043C10.6558 8.933 10.6044 9.09872 10.6044 9.29759C10.6044 9.58594 10.7088 9.80634 10.9176 9.95881C11.1297 10.108 11.3982 10.1825 11.723 10.1825ZM23.9059 3.86364L21.2362 11.5H18.8498L16.18 3.86364H18.4173L20.0032 9.32741H20.0827L21.6637 3.86364H23.9059ZM28.1939 11.6491C27.4216 11.6491 26.7538 11.4851 26.1903 11.157C25.6302 10.8255 25.1977 10.3648 24.8928 9.77486C24.5878 9.18158 24.4354 8.49384 24.4354 7.71165C24.4354 6.92282 24.5878 6.23343 24.8928 5.64347C25.1977 5.05019 25.6302 4.58949 26.1903 4.26136C26.7538 3.92992 27.4216 3.7642 28.1939 3.7642C28.9661 3.7642 29.6323 3.92992 30.1925 4.26136C30.7559 4.58949 31.1901 5.05019 31.495 5.64347C31.8 6.23343 31.9524 6.92282 31.9524 7.71165C31.9524 8.49384 31.8 9.18158 31.495 9.77486C31.1901 10.3648 30.7559 10.8255 30.1925 11.157C29.6323 11.4851 28.9661 11.6491 28.1939 11.6491ZM28.2038 10.0085C28.5552 10.0085 28.8485 9.90909 29.0838 9.71023C29.3191 9.50805 29.4964 9.23295 29.6158 8.88494C29.7384 8.53693 29.7997 8.14086 29.7997 7.69673C29.7997 7.2526 29.7384 6.85653 29.6158 6.50852C29.4964 6.16051 29.3191 5.88542 29.0838 5.68324C28.8485 5.48106 28.5552 5.37997 28.2038 5.37997C27.8492 5.37997 27.5509 5.48106 27.3089 5.68324C27.0703 5.88542 26.8897 6.16051 26.767 6.50852C26.6477 6.85653 26.5881 7.2526 26.5881 7.69673C26.5881 8.14086 26.6477 8.53693 26.767 8.88494C26.8897 9.23295 27.0703 9.50805 27.3089 9.71023C27.5509 9.90909 27.8492 10.0085 28.2038 10.0085ZM33.3295 11.5V3.86364H35.3828V5.19602H35.4624C35.6016 4.72206 35.8352 4.36411 36.1634 4.12216C36.4915 3.87689 36.8693 3.75426 37.2969 3.75426C37.4029 3.75426 37.5173 3.76089 37.6399 3.77415C37.7625 3.78741 37.8703 3.80563 37.9631 3.82883V5.7081C37.8636 5.67827 37.7261 5.65175 37.5504 5.62855C37.3748 5.60535 37.214 5.59375 37.0682 5.59375C36.7566 5.59375 36.4782 5.6617 36.233 5.79759C35.991 5.93016 35.7988 6.11577 35.6562 6.3544C35.517 6.59304 35.4474 6.86813 35.4474 7.17969V11.5H33.3295ZM39.0581 11.5V3.86364H41.176V11.5H39.0581ZM40.122 2.87926C39.8071 2.87926 39.537 2.77486 39.3116 2.56605C39.0895 2.35393 38.9785 2.10038 38.9785 1.8054C38.9785 1.51373 39.0895 1.26349 39.3116 1.05469C39.537 0.842566 39.8071 0.736505 40.122 0.736505C40.4368 0.736505 40.7053 0.842566 40.9274 1.05469C41.1528 1.26349 41.2654 1.51373 41.2654 1.8054C41.2654 2.10038 41.1528 2.35393 40.9274 2.56605C40.7053 2.77486 40.4368 2.87926 40.122 2.87926ZM46.9343 3.86364V5.45455H42.3356V3.86364H46.9343ZM43.3796 2.03409H45.4975V9.15341C45.4975 9.34896 45.5273 9.50142 45.587 9.6108C45.6467 9.71686 45.7295 9.79143 45.8356 9.83452C45.945 9.8776 46.0709 9.89915 46.2134 9.89915C46.3129 9.89915 46.4123 9.89086 46.5117 9.87429C46.6112 9.8544 46.6874 9.83949 46.7404 9.82955L47.0735 11.4055C46.9674 11.4387 46.8183 11.4768 46.6261 11.5199C46.4338 11.5663 46.2002 11.5945 45.9251 11.6044C45.4147 11.6243 44.9672 11.5563 44.5827 11.4006C44.2016 11.2448 43.9049 11.0028 43.6928 10.6747C43.4807 10.3466 43.3763 9.93229 43.3796 9.43182V2.03409ZM51.712 11.6491C50.9265 11.6491 50.2504 11.4901 49.6836 11.1719C49.1201 10.8504 48.686 10.3963 48.381 9.80966C48.0761 9.2197 47.9237 8.52202 47.9237 7.71662C47.9237 6.93111 48.0761 6.24171 48.381 5.64844C48.686 5.05516 49.1152 4.5928 49.6687 4.26136C50.2255 3.92992 50.8784 3.7642 51.6275 3.7642C52.1313 3.7642 52.6003 3.84541 53.0344 4.00781C53.4719 4.1669 53.8531 4.4072 54.1779 4.72869C54.506 5.05019 54.7612 5.45455 54.9435 5.94176C55.1258 6.42566 55.217 6.99242 55.217 7.64205V8.22372H48.7688V6.91122H53.2234C53.2234 6.6063 53.1571 6.33617 53.0245 6.10085C52.8919 5.86553 52.708 5.68158 52.4727 5.54901C52.2406 5.41312 51.9705 5.34517 51.6623 5.34517C51.3408 5.34517 51.0558 5.41974 50.8072 5.56889C50.5619 5.71473 50.3697 5.91193 50.2305 6.16051C50.0913 6.40578 50.02 6.67921 50.0167 6.98082V8.22869C50.0167 8.60653 50.0863 8.933 50.2255 9.2081C50.368 9.48319 50.5685 9.69531 50.8271 9.84446C51.0856 9.99361 51.3922 10.0682 51.7468 10.0682C51.9821 10.0682 52.1976 10.035 52.3931 9.96875C52.5887 9.90246 52.756 9.80303 52.8952 9.67045C53.0344 9.53788 53.1405 9.37547 53.2134 9.18324L55.1722 9.3125C55.0728 9.78314 54.869 10.1941 54.5607 10.5455C54.2558 10.8935 53.8614 11.1652 53.3775 11.3608C52.8969 11.553 52.3417 11.6491 51.712 11.6491ZM62.9528 6.04119L61.0138 6.16051C60.9807 5.99479 60.9094 5.84564 60.8001 5.71307C60.6907 5.57718 60.5465 5.46946 60.3675 5.38991C60.1919 5.30705 59.9814 5.26562 59.7362 5.26562C59.408 5.26562 59.1313 5.33523 58.9059 5.47443C58.6805 5.61032 58.5678 5.79261 58.5678 6.02131C58.5678 6.2036 58.6407 6.35772 58.7866 6.48366C58.9324 6.60961 59.1826 6.7107 59.5373 6.78693L60.9194 7.06534C61.6618 7.2178 62.2153 7.46307 62.5799 7.80114C62.9445 8.1392 63.1268 8.58333 63.1268 9.13352C63.1268 9.634 62.9793 10.0732 62.6843 10.451C62.3926 10.8288 61.9916 11.1238 61.4812 11.3359C60.9741 11.5447 60.3891 11.6491 59.7262 11.6491C58.7153 11.6491 57.9099 11.4387 57.31 11.0178C56.7134 10.5935 56.3638 10.0168 56.261 9.28764L58.3441 9.17827C58.4071 9.48651 58.5595 9.72183 58.8015 9.88423C59.0434 10.0433 59.3533 10.1229 59.7312 10.1229C60.1024 10.1229 60.4007 10.0516 60.6261 9.90909C60.8548 9.76326 60.9708 9.57599 60.9741 9.3473C60.9708 9.15507 60.8896 8.99763 60.7305 8.875C60.5714 8.74905 60.3261 8.65294 59.9947 8.58665L58.6722 8.32315C57.9265 8.17401 57.3713 7.91548 57.0067 7.54759C56.6455 7.17969 56.4648 6.7107 56.4648 6.14062C56.4648 5.65009 56.5974 5.22751 56.8626 4.87287C57.131 4.51823 57.5072 4.24479 57.9911 4.05256C58.4783 3.86032 59.0484 3.7642 59.7013 3.7642C60.6658 3.7642 61.4248 3.96804 61.9783 4.37571C62.5352 4.78338 62.86 5.33854 62.9528 6.04119Z" fill="#808080"/>
</svg>
