<svg width="55" height="13" viewBox="0 0 55 13" fill="none" xmlns="http://www.w3.org/2000/svg">
<path d="M7.45082 4.21023C7.40536 3.75189 7.21029 3.39583 6.86559 3.14205C6.52089 2.88826 6.05309 2.76136 5.46218 2.76136C5.06067 2.76136 4.72165 2.81818 4.44514 2.93182C4.16862 3.04167 3.9565 3.19508 3.80877 3.39205C3.66483 3.58902 3.59286 3.8125 3.59286 4.0625C3.58529 4.27083 3.62885 4.45265 3.72354 4.60795C3.82203 4.76326 3.9565 4.89773 4.12695 5.01136C4.29741 5.12121 4.49438 5.2178 4.71786 5.30114C4.94135 5.38068 5.17998 5.44886 5.43377 5.50568L6.47923 5.75568C6.9868 5.86932 7.45271 6.02083 7.87695 6.21023C8.3012 6.39962 8.66862 6.63258 8.97923 6.90909C9.28983 7.18561 9.53036 7.51136 9.70082 7.88636C9.87506 8.26136 9.96407 8.69129 9.96786 9.17614C9.96407 9.88826 9.78226 10.5057 9.42241 11.0284C9.06635 11.5473 8.5512 11.9508 7.87695 12.2386C7.2065 12.5227 6.39779 12.6648 5.45082 12.6648C4.51142 12.6648 3.69324 12.5208 2.99627 12.233C2.30309 11.9451 1.76142 11.5189 1.37127 10.9545C0.984908 10.3864 0.782256 9.68371 0.763317 8.84659H3.144C3.17051 9.23674 3.28226 9.5625 3.47923 9.82386C3.67998 10.0814 3.94703 10.2765 4.28036 10.4091C4.61748 10.5379 4.99817 10.6023 5.42241 10.6023C5.83907 10.6023 6.20082 10.5417 6.50764 10.4205C6.81824 10.2992 7.05877 10.1307 7.22923 9.91477C7.39968 9.69886 7.48491 9.45076 7.48491 9.17045C7.48491 8.90909 7.40726 8.68939 7.25195 8.51136C7.10044 8.33333 6.87695 8.18182 6.5815 8.05682C6.28983 7.93182 5.93188 7.81818 5.50764 7.71591L4.24059 7.39773C3.25953 7.15909 2.48491 6.78598 1.91673 6.27841C1.34854 5.77083 1.06635 5.08712 1.07013 4.22727C1.06635 3.52273 1.25385 2.9072 1.63263 2.38068C2.01521 1.85417 2.53983 1.44318 3.2065 1.14773C3.87317 0.852272 4.63074 0.704545 5.47923 0.704545C6.34286 0.704545 7.09665 0.852272 7.74059 1.14773C8.38832 1.44318 8.89211 1.85417 9.25195 2.38068C9.6118 2.9072 9.79741 3.51705 9.80877 4.21023H7.45082ZM15.5545 12.6705C14.6568 12.6705 13.8841 12.4886 13.2363 12.125C12.5924 11.7576 12.0962 11.2386 11.7477 10.5682C11.3992 9.89394 11.225 9.09659 11.225 8.17614C11.225 7.27841 11.3992 6.49053 11.7477 5.8125C12.0962 5.13447 12.5867 4.60606 13.2193 4.22727C13.8556 3.84848 14.6019 3.65909 15.4579 3.65909C16.0337 3.65909 16.5697 3.75189 17.0659 3.9375C17.5659 4.11932 18.0015 4.39394 18.3727 4.76136C18.7477 5.12879 19.0394 5.59091 19.2477 6.14773C19.456 6.70076 19.5602 7.34848 19.5602 8.09091V8.75568H12.1909V7.25568H17.2818C17.2818 6.9072 17.206 6.59848 17.0545 6.32955C16.903 6.06061 16.6928 5.85038 16.4238 5.69886C16.1587 5.54356 15.85 5.46591 15.4977 5.46591C15.1303 5.46591 14.8045 5.55114 14.5204 5.72159C14.2401 5.88826 14.0204 6.11364 13.8613 6.39773C13.7022 6.67803 13.6208 6.99053 13.617 7.33523V8.76136C13.617 9.19318 13.6966 9.56629 13.8556 9.88068C14.0185 10.1951 14.2477 10.4375 14.5431 10.608C14.8386 10.7784 15.189 10.8636 15.5943 10.8636C15.8632 10.8636 16.1094 10.8258 16.3329 10.75C16.5564 10.6742 16.7477 10.5606 16.9068 10.4091C17.0659 10.2576 17.1871 10.072 17.2704 9.85227L19.5091 10C19.3954 10.5379 19.1625 11.0076 18.8102 11.4091C18.4617 11.8068 18.0109 12.1174 17.4579 12.3409C16.9087 12.5606 16.2742 12.6705 15.5545 12.6705ZM23.6284 12.6648C23.0716 12.6648 22.5753 12.5682 22.1397 12.375C21.7041 12.178 21.3594 11.8883 21.1056 11.5057C20.8556 11.1193 20.7306 10.6383 20.7306 10.0625C20.7306 9.57765 20.8197 9.17045 20.9977 8.84091C21.1757 8.51136 21.4181 8.24621 21.725 8.04545C22.0318 7.8447 22.3803 7.69318 22.7704 7.59091C23.1644 7.48864 23.5772 7.41667 24.0091 7.375C24.5166 7.32197 24.9257 7.27273 25.2363 7.22727C25.5469 7.17803 25.7723 7.10606 25.9125 7.01136C26.0526 6.91667 26.1227 6.77652 26.1227 6.59091V6.55682C26.1227 6.19697 26.0091 5.91856 25.7818 5.72159C25.5583 5.52462 25.2401 5.42614 24.8272 5.42614C24.3916 5.42614 24.045 5.52273 23.7875 5.71591C23.5299 5.9053 23.3594 6.14394 23.2761 6.43182L21.0375 6.25C21.1511 5.7197 21.3746 5.26136 21.7079 4.875C22.0413 4.48485 22.4712 4.18561 22.9977 3.97727C23.528 3.76515 24.1416 3.65909 24.8386 3.65909C25.3234 3.65909 25.7875 3.71591 26.2306 3.82955C26.6776 3.94318 27.0734 4.11932 27.4181 4.35795C27.7666 4.59659 28.0413 4.90341 28.242 5.27841C28.4428 5.64962 28.5431 6.0947 28.5431 6.61364V12.5H26.2477V11.2898H26.1795C26.0394 11.5625 25.8519 11.803 25.617 12.0114C25.3822 12.2159 25.1 12.3769 24.7704 12.4943C24.4409 12.608 24.0602 12.6648 23.6284 12.6648ZM24.3216 10.9943C24.6776 10.9943 24.992 10.9242 25.2647 10.7841C25.5375 10.6402 25.7515 10.447 25.9068 10.2045C26.0621 9.96212 26.1397 9.6875 26.1397 9.38068V8.45455C26.064 8.50379 25.9598 8.54924 25.8272 8.59091C25.6984 8.62879 25.5526 8.66477 25.3897 8.69886C25.2269 8.72917 25.064 8.75758 24.9011 8.78409C24.7382 8.80682 24.5905 8.82765 24.4579 8.84659C24.1738 8.88826 23.9257 8.95455 23.7136 9.04545C23.5015 9.13636 23.3367 9.25947 23.2193 9.41477C23.1019 9.56629 23.0431 9.75568 23.0431 9.98295C23.0431 10.3125 23.1625 10.5644 23.4011 10.7386C23.6435 10.9091 23.9503 10.9943 24.3216 10.9943ZM30.421 12.5V3.77273H32.7676V5.29545H32.8585C33.0176 4.75379 33.2846 4.3447 33.6596 4.06818C34.0346 3.78788 34.4664 3.64773 34.9551 3.64773C35.0763 3.64773 35.207 3.6553 35.3471 3.67045C35.4873 3.68561 35.6104 3.70644 35.7164 3.73295V5.88068C35.6028 5.84659 35.4456 5.81629 35.2449 5.78977C35.0441 5.76326 34.8604 5.75 34.6937 5.75C34.3377 5.75 34.0195 5.82765 33.7392 5.98295C33.4627 6.13447 33.243 6.34659 33.0801 6.61932C32.921 6.89205 32.8414 7.20644 32.8414 7.5625V12.5H30.421ZM40.5048 12.6705C39.6109 12.6705 38.8419 12.4811 38.198 12.1023C37.5578 11.7197 37.0654 11.1894 36.7207 10.5114C36.3798 9.83333 36.2093 9.05303 36.2093 8.17045C36.2093 7.27652 36.3817 6.49242 36.7264 5.81818C37.0749 5.14015 37.5692 4.61174 38.2093 4.23295C38.8495 3.85038 39.6109 3.65909 40.4934 3.65909C41.2548 3.65909 41.9215 3.79735 42.4934 4.07386C43.0654 4.35038 43.5181 4.73864 43.8514 5.23864C44.1847 5.73864 44.3684 6.32576 44.4025 7H42.1184C42.054 6.56439 41.8836 6.21401 41.6071 5.94886C41.3343 5.67992 40.9764 5.54545 40.5332 5.54545C40.1582 5.54545 39.8306 5.64773 39.5502 5.85227C39.2737 6.05303 39.0578 6.34659 38.9025 6.73295C38.7472 7.11932 38.6696 7.58712 38.6696 8.13636C38.6696 8.69318 38.7453 9.16667 38.8968 9.55682C39.0521 9.94697 39.2699 10.2443 39.5502 10.4489C39.8306 10.6534 40.1582 10.7557 40.5332 10.7557C40.8097 10.7557 41.0578 10.6989 41.2775 10.5852C41.501 10.4716 41.6847 10.3068 41.8287 10.0909C41.9764 9.87121 42.073 9.60795 42.1184 9.30114H44.4025C44.3646 9.9678 44.1828 10.5549 43.8571 11.0625C43.5351 11.5663 43.09 11.9602 42.5218 12.2443C41.9537 12.5284 41.2813 12.6705 40.5048 12.6705ZM48.3727 7.45455V12.5H45.9522V0.863636H48.3045V5.3125H48.4068C48.6038 4.79735 48.9219 4.39394 49.3613 4.10227C49.8007 3.80682 50.3519 3.65909 51.0147 3.65909C51.6208 3.65909 52.1492 3.79167 52.6 4.05682C53.0545 4.31818 53.4068 4.69508 53.6568 5.1875C53.9106 5.67614 54.0356 6.26136 54.0318 6.94318V12.5H51.6113V7.375C51.6151 6.83712 51.4788 6.41856 51.2022 6.11932C50.9295 5.82008 50.5469 5.67045 50.0545 5.67045C49.725 5.67045 49.4333 5.74053 49.1795 5.88068C48.9295 6.02083 48.7325 6.22538 48.5886 6.49432C48.4484 6.75947 48.3765 7.07955 48.3727 7.45455Z" fill="#CECECE"/>
</svg>
